<svg width="50" height="51" viewBox="0 0 50 51" fill="none" xmlns="http://www.w3.org/2000/svg">
<rect y="0.5271" width="50" height="50" fill="#5570F1"/>
<path d="M24.945 26.0471C24.945 27.1811 24.822 28.1621 24.576 28.9901C24.336 29.8181 24.003 30.5051 23.577 31.0511C23.151 31.5971 22.65 32.0021 22.074 32.2661C21.498 32.5301 20.877 32.6621 20.211 32.6621C19.545 32.6621 18.924 32.5301 18.348 32.2661C17.772 32.0021 17.271 31.5971 16.845 31.0511C16.425 30.5051 16.095 29.8181 15.855 28.9901C15.615 28.1621 15.495 27.1811 15.495 26.0471C15.495 24.9131 15.615 23.9321 15.855 23.1041C16.095 22.2701 16.425 21.5831 16.845 21.0431C17.271 20.4971 17.772 20.0921 18.348 19.8281C18.924 19.5581 19.545 19.4231 20.211 19.4231C20.877 19.4231 21.498 19.5581 22.074 19.8281C22.65 20.0921 23.151 20.4971 23.577 21.0431C24.003 21.5831 24.336 22.2701 24.576 23.1041C24.822 23.9321 24.945 24.9131 24.945 26.0471ZM22.947 26.0471C22.947 25.0871 22.869 24.2891 22.713 23.6531C22.563 23.0111 22.362 22.4981 22.11 22.1141C21.858 21.7301 21.567 21.4571 21.237 21.2951C20.907 21.1331 20.565 21.0521 20.211 21.0521C19.851 21.0521 19.506 21.1331 19.176 21.2951C18.852 21.4571 18.564 21.7301 18.312 22.1141C18.06 22.4981 17.859 23.0111 17.709 23.6531C17.559 24.2891 17.484 25.0871 17.484 26.0471C17.484 27.0071 17.559 27.8081 17.709 28.4501C17.859 29.0861 18.06 29.5961 18.312 29.9801C18.564 30.3641 18.852 30.6371 19.176 30.7991C19.506 30.9611 19.851 31.0421 20.211 31.0421C20.565 31.0421 20.907 30.9611 21.237 30.7991C21.567 30.6371 21.858 30.3641 22.11 29.9801C22.362 29.5961 22.563 29.0861 22.713 28.4501C22.869 27.8081 22.947 27.0071 22.947 26.0471ZM34.6844 31.0601V32.5271H27.6194V31.0601H30.3194V22.9421C30.3194 22.6541 30.3284 22.3601 30.3464 22.0601L28.2674 23.8151C28.1774 23.8871 28.0844 23.9351 27.9884 23.9591C27.8984 23.9771 27.8114 23.9771 27.7274 23.9591C27.6494 23.9411 27.5774 23.9141 27.5114 23.8781C27.4514 23.8361 27.4034 23.7911 27.3674 23.7431L26.7644 22.8971L30.6704 19.5401H32.2454V31.0601H34.6844Z" fill="white"/>
</svg>
